<?xml version="1.0" encoding="utf-8"?>
<!DOCTYPE svg PUBLIC "-//W3C//DTD SVG 1.1//EN" "http://www.w3.org/Graphics/SVG/1.1/DTD/svg11.dtd">
<svg xmlns="http://www.w3.org/2000/svg" xmlns:xlink="http://www.w3.org/1999/xlink" version="1.1" baseProfile="full" width="200" height="40" viewBox="0 0 200.00 40.00" enable-background="new 0 0 200.00 40.00" xml:space="preserve">
	<path fill="#231F20" fill-opacity="1" stroke-width="0.2" stroke-linejoin="round" d="M 61.3561,23.3294L 61.2275,15.9057L 63.5702,15.9057L 63.5702,25.2681L 60.2018,25.2681L 57.8653,17.5854L 57.8126,17.5854L 57.9435,25.2681L 55.6189,25.2681L 55.6189,15.9057L 59.129,15.9057L 61.3051,23.3294L 61.3561,23.3294 Z "/>
	<path fill="#231F20" fill-opacity="1" stroke-width="0.2" stroke-linejoin="round" d="M 18.79,16.7784L 17.4956,25.365L 14.9398,25.365L 16.6921,15.9057L 20.9021,15.9057L 22.6452,25.365L 20.1053,25.365L 18.8432,16.7784L 18.79,16.7784 Z "/>
	<path fill="#231F20" fill-opacity="1" stroke-width="0.2" stroke-linejoin="round" d="M 29.817,23.1382L 30.985,15.9055L 34.8425,15.9055L 35.0516,25.3648L 32.6851,25.3648L 32.6239,16.8587L 32.5723,16.8609L 30.9929,25.3648L 28.5935,25.3648L 27.0113,16.8587L 26.9592,16.8587L 26.8997,25.3648L 24.5349,25.3648L 24.744,15.9055L 28.6015,15.9055L 29.7655,23.1382L 29.817,23.1382 Z "/>
	<path fill="#231F20" fill-opacity="1" stroke-width="0.2" stroke-linejoin="round" d="M 10.9589,22.6944C 11.0507,22.9228 11.0201,23.2174 10.9771,23.396C 10.9,23.7048 10.6875,24.0267 10.0556,24.0267C 9.46511,24.0267 9.10469,23.6884 9.10469,23.1732L 9.10242,22.2546L 6.56645,22.2546L 6.56645,22.9868C 6.56645,25.096 8.22574,25.7302 10.0029,25.7302C 11.716,25.7302 13.1214,25.1493 13.3481,23.5716C 13.4637,22.7527 13.3787,22.2172 13.3379,22.0177C 12.9373,20.0354 9.3495,19.4489 9.08032,18.3382C 9.03498,18.1444 9.04519,17.9523 9.07012,17.8435C 9.13869,17.5403 9.34327,17.2088 9.93433,17.2088C 10.4903,17.2088 10.8138,17.5505 10.8138,18.065L 10.8138,18.6482L 13.1741,18.6482L 13.1741,17.9874C 13.1741,15.9258 11.3244,15.6033 9.9842,15.6033C 8.30281,15.6033 6.93084,16.161 6.67753,17.7046C 6.60839,18.1217 6.59933,18.5003 6.7002,18.978C 7.10991,20.911 10.4716,21.4709 10.9589,22.6944 Z "/>
	<path fill="#231F20" fill-opacity="1" stroke-width="0.2" stroke-linejoin="round" d="M 41.7143,22.6756C 41.8027,22.9022 41.7755,23.193 41.7319,23.3709C 41.6554,23.6826 41.4434,23.9937 40.8195,23.9937C 40.2324,23.9937 39.8776,23.6622 39.8776,23.1499L 39.8759,22.2404L 37.3632,22.2404L 37.3621,22.9635C 37.3621,25.054 39.0072,25.6791 40.7679,25.6791C 42.4618,25.6791 43.8553,25.1067 44.0769,23.5432C 44.1919,22.7345 44.1075,22.2035 44.0672,22.0029C 43.6711,20.0427 40.1179,19.4613 39.8544,18.3619C 39.8091,18.172 39.8215,17.9816 39.8431,17.8756C 39.91,17.5736 40.1123,17.2449 40.6988,17.2449C 41.2479,17.2449 41.5692,17.5832 41.5692,18.0893L 41.5692,18.669L 43.9052,18.669L 43.9052,18.0156C 43.9052,15.9755 42.0725,15.657 40.7492,15.657C 39.0837,15.657 37.7231,16.2022 37.4754,17.734C 37.4052,18.1482 37.3955,18.5234 37.4964,18.9954C 37.9027,20.9109 41.2304,21.4657 41.7143,22.6756 Z "/>
	<path fill="#231F20" fill-opacity="1" stroke-width="0.2" stroke-linejoin="round" d="M 49.6525,23.9429C 50.3105,23.9429 50.515,23.4969 50.5615,23.2611C 50.5825,23.1591 50.5853,23.0214 50.5848,22.899L 50.5848,15.9037L 52.9824,15.9037L 52.9824,22.6831C 52.9847,22.8582 52.9666,23.2147 52.9564,23.3082C 52.792,25.0723 51.3934,25.6424 49.6525,25.6424C 47.9145,25.6424 46.517,25.0723 46.3544,23.3082C 46.3453,23.2147 46.3272,22.8582 46.3317,22.6831L 46.3317,15.9037L 48.7226,15.9037L 48.7226,22.899C 48.7203,23.0214 48.7249,23.1591 48.7453,23.2611C 48.7923,23.4969 48.9969,23.9429 49.6525,23.9429 Z "/>
	<path fill="#231F20" fill-opacity="1" stroke-width="0.2" stroke-linejoin="round" d="M 69.3895,23.8463C 70.0724,23.8463 70.3121,23.415 70.3563,23.1623C 70.3744,23.0552 70.3812,22.9226 70.3778,22.8024L 70.3778,21.4311L 69.4093,21.4311L 69.4093,20.0478L 72.7562,20.0478L 72.7562,22.5854C 72.7551,22.7628 72.7534,22.8942 72.7273,23.2099C 72.5692,24.9315 71.0737,25.5475 69.3986,25.5475C 67.7223,25.5475 66.2273,24.9315 66.072,23.2099C 66.0449,22.8942 66.0403,22.7628 66.0392,22.5854L 66.0403,18.6055C 66.0403,18.4355 66.0601,18.1385 66.0794,17.9867C 66.2896,16.2124 67.7223,15.6485 69.3997,15.6485C 71.076,15.6485 72.5466,16.2078 72.7217,17.9867C 72.7489,18.2819 72.7381,18.6055 72.7398,18.6055L 72.7398,18.9206L 70.3563,18.9206L 70.3563,18.389C 70.3563,18.389 70.354,18.1652 70.3251,18.0332C 70.2826,17.8252 70.1035,17.3446 69.3798,17.3446C 68.693,17.3446 68.4901,17.7997 68.438,18.0332C 68.4108,18.1533 68.3995,18.3216 68.3995,18.4763L 68.3995,22.8024C 68.3983,22.9226 68.404,23.0552 68.421,23.1623C 68.4663,23.415 68.7049,23.8463 69.3895,23.8463 Z "/>
	<rect x="78.3452" y="9.62949" fill="#231F20" fill-opacity="1" stroke-width="0.2" stroke-linejoin="round" width="4.06434" height="21.8167"/>
	<path fill="#231F20" fill-opacity="1" stroke-width="0.2" stroke-linejoin="round" d="M 85.1264,13.9626L 89.1318,13.9626L 89.1318,16.3512C 89.7087,15.6213 90.4403,15.0365 91.3283,14.595C 92.2135,14.1536 93.2256,13.932 94.3612,13.932C 96.5334,13.932 98.2335,14.5781 99.4564,15.8696C 100.682,17.1599 101.295,18.9581 101.295,21.2668L 101.295,31.4463L 97.2021,31.4463L 97.2021,21.7224C 97.2021,20.398 96.8711,19.3525 96.2143,18.5823C 95.5575,17.8139 94.5703,17.4297 93.2573,17.4297C 92.0995,17.4297 91.1288,17.8286 90.3405,18.6265C 89.5551,19.4256 89.1612,20.5737 89.1612,22.0732L 89.1612,31.4463L 85.1264,31.4463L 85.1264,13.9626 Z "/>
	<path fill="#231F20" fill-opacity="1" stroke-width="0.2" stroke-linejoin="round" d="M 102.251,13.9626L 105.24,13.9626L 105.24,11.3031L 109.304,8.52291L 109.304,13.9626L 112.86,13.9626L 112.86,17.5793L 109.304,17.5793L 109.304,24.1246C 109.304,24.8823 109.343,25.4949 109.423,25.9619C 109.504,26.4299 109.669,26.7887 109.917,27.038C 110.166,27.2873 110.526,27.4517 110.992,27.5316C 111.462,27.6109 112.084,27.6512 112.86,27.6512L 112.86,31.4463L 112.294,31.4463C 110.939,31.4463 109.808,31.3273 108.9,31.0876C 107.994,30.8479 107.273,30.4455 106.733,29.8777C 106.196,29.3099 105.812,28.5619 105.583,27.6364C 105.355,26.7099 105.24,25.5481 105.24,24.1535L 105.24,17.5793L 102.251,17.5793L 102.251,13.9626 Z "/>
	<path fill="#231F20" fill-opacity="1" stroke-width="0.2" stroke-linejoin="round" d="M 122.725,17.4893C 121.511,17.4893 120.458,17.7585 119.573,18.2945C 118.685,18.8318 118.063,19.5396 117.705,20.4174L 127.628,20.4174C 127.329,19.4585 126.751,18.7298 125.894,18.2334C 125.038,17.7375 123.98,17.4893 122.725,17.4893 Z M 122.876,31.477C 121.502,31.477 120.244,31.2504 119.108,30.7993C 117.975,30.3482 117.002,29.7294 116.195,28.9411C 115.39,28.1545 114.762,27.228 114.312,26.1614C 113.864,25.096 113.641,23.9581 113.641,22.7477C 113.641,21.5196 113.875,20.367 114.344,19.2902C 114.811,18.2152 115.453,17.2841 116.27,16.497C 117.087,15.7087 118.048,15.0854 119.155,14.6241C 120.261,14.1633 121.451,13.9321 122.725,13.9321C 124.021,13.9321 125.22,14.1429 126.327,14.5634C 127.434,14.9834 128.384,15.5716 129.183,16.3281C 129.978,17.0847 130.6,17.9772 131.05,19.0046C 131.498,20.0321 131.722,21.1524 131.722,22.3668L 131.722,23.796L 117.496,23.796C 117.776,25.0314 118.381,26.0277 119.317,26.7837C 120.254,27.5413 121.441,27.9199 122.876,27.9199C 124.012,27.9199 124.997,27.6416 125.833,27.0829C 126.67,26.5247 127.297,25.7784 127.716,24.8422L 131.033,26.7548C 130.277,28.1693 129.216,29.3094 127.852,30.177C 126.485,31.043 124.829,31.477 122.876,31.477 Z "/>
	<path fill="#231F20" fill-opacity="1" stroke-width="0.2" stroke-linejoin="round" d="M 133.514,13.9626L 137.52,13.9626L 137.52,16.5626C 138.337,14.8297 139.83,13.9626 142.003,13.9626C 142.64,13.9626 143.214,14.0335 143.722,14.1717C 144.227,14.3117 144.683,14.4908 145.081,14.7095L 143.557,18.5353C 143.257,18.3369 142.924,18.1715 142.555,18.0428C 142.187,17.9125 141.713,17.8479 141.137,17.8479C 139.959,17.8479 139.069,18.1811 138.461,18.8492C 137.853,19.5168 137.549,20.6077 137.549,22.1213L 137.549,31.4463L 133.514,31.4463L 133.514,13.9626 Z "/>
	<path fill="#231F20" fill-opacity="1" stroke-width="0.2" stroke-linejoin="round" d="M 146.395,13.9626L 150.401,13.9626L 150.401,16.3512C 150.977,15.6213 151.709,15.0365 152.597,14.595C 153.482,14.1536 154.494,13.932 155.63,13.932C 157.802,13.932 159.502,14.5781 160.725,15.8696C 161.951,17.1599 162.564,18.9581 162.564,21.2668L 162.564,31.4463L 158.471,31.4463L 158.471,21.7224C 158.471,20.398 158.14,19.3525 157.483,18.5823C 156.827,17.8139 155.839,17.4297 154.526,17.4297C 153.368,17.4297 152.398,17.8286 151.61,18.6265C 150.824,19.4256 150.43,20.5737 150.43,22.0732L 150.43,31.4463L 146.395,31.4463L 146.395,13.9626 Z "/>
	<path fill="#231F20" fill-opacity="1" stroke-width="0.2" stroke-linejoin="round" d="M 173.411,17.4893C 172.198,17.4893 171.145,17.7585 170.259,18.2945C 169.371,18.8318 168.749,19.5396 168.392,20.4174L 178.314,20.4174C 178.016,19.4585 177.437,18.7298 176.581,18.2334C 175.725,17.7375 174.667,17.4893 173.411,17.4893 Z M 173.563,31.477C 172.189,31.477 170.93,31.2504 169.795,30.7993C 168.661,30.3482 167.688,29.7294 166.881,28.9411C 166.076,28.1545 165.448,27.228 164.998,26.1614C 164.551,25.096 164.327,23.9581 164.327,22.7477C 164.327,21.5196 164.561,20.367 165.031,19.2902C 165.497,18.2152 166.14,17.2841 166.956,16.497C 167.774,15.7087 168.734,15.0854 169.841,14.6241C 170.947,14.1633 172.137,13.9321 173.411,13.9321C 174.708,13.9321 175.907,14.1429 177.013,14.5634C 178.121,14.9834 179.071,15.5716 179.869,16.3281C 180.665,17.0847 181.287,17.9772 181.737,19.0046C 182.184,20.0321 182.408,21.1524 182.408,22.3668L 182.408,23.796L 168.182,23.796C 168.462,25.0314 169.068,26.0277 170.004,26.7837C 170.941,27.5413 172.127,27.9199 173.563,27.9199C 174.698,27.9199 175.683,27.6416 176.52,27.0829C 177.357,26.5247 177.984,25.7784 178.402,24.8422L 181.72,26.7548C 180.963,28.1693 179.903,29.3094 178.539,30.177C 177.172,31.043 175.516,31.477 173.563,31.477 Z "/>
	<path fill="#231F20" fill-opacity="1" stroke-width="0.2" stroke-linejoin="round" d="M 182.824,13.9626L 185.813,13.9626L 185.813,11.3031L 189.877,8.52291L 189.877,13.9626L 193.434,13.9626L 193.434,17.5793L 189.877,17.5793L 189.877,24.1246C 189.877,24.8823 189.917,25.4949 189.997,25.9619C 190.077,26.4299 190.242,26.7887 190.49,27.038C 190.738,27.2873 191.098,27.4517 191.565,27.5316C 192.035,27.6109 192.658,27.6512 193.434,27.6512L 193.434,31.4463L 192.867,31.4463C 191.512,31.4463 190.381,31.3273 189.473,31.0876C 188.566,30.8479 187.846,30.4455 187.306,29.8777C 186.769,29.3099 186.384,28.5619 186.156,27.6364C 185.928,26.7099 185.813,25.5481 185.813,24.1535L 185.813,17.5793L 182.824,17.5793L 182.824,13.9626 Z "/>
</svg>
